<svg xmlns="http://www.w3.org/2000/svg" width="2048" height="1024" viewBox="0 0 2048 1024">
  <rect width="2048" height="1024" fill="#113b6f"/>
  <g fill="#5fae6b" stroke="#8fd499" stroke-width="6" opacity="0.95">
    <path d="M170 290 L260 240 L360 260 L430 330 L460 430 L420 520 L300 570 L200 520 L150 430 Z"/>
    <path d="M420 580 L500 610 L560 700 L500 860 L430 910 L380 860 L390 760 Z"/>
    <path d="M900 210 L980 170 L1120 180 L1260 230 L1360 300 L1420 360 L1420 450 L1330 500 L1210 490 L1120 440 L980 400 L900 320 Z"/>
    <path d="M890 510 L980 560 L1040 640 L1000 760 L910 860 L830 900 L760 840 L760 740 L800 650 L840 570 Z"/>
    <path d="M1210 520 L1330 540 L1470 580 L1600 620 L1710 660 L1800 700 L1840 760 L1760 800 L1630 790 L1510 760 L1380 700 L1260 640 Z"/>
    <path d="M1690 760 L1760 790 L1820 860 L1760 920 L1680 910 L1640 840 Z"/>
    <path d="M300 170 L360 140 L430 150 L440 210 L390 240 L330 230 Z"/>
  </g>
  <g stroke="#79a9d6" stroke-width="1.5" opacity="0.25">
    <line x1="0" y1="128" x2="2048" y2="128"/>
    <line x1="0" y1="256" x2="2048" y2="256"/>
    <line x1="0" y1="384" x2="2048" y2="384"/>
    <line x1="0" y1="512" x2="2048" y2="512"/>
    <line x1="0" y1="640" x2="2048" y2="640"/>
    <line x1="0" y1="768" x2="2048" y2="768"/>
    <line x1="0" y1="896" x2="2048" y2="896"/>
    <line x1="256" y1="0" x2="256" y2="1024"/>
    <line x1="512" y1="0" x2="512" y2="1024"/>
    <line x1="768" y1="0" x2="768" y2="1024"/>
    <line x1="1024" y1="0" x2="1024" y2="1024"/>
    <line x1="1280" y1="0" x2="1280" y2="1024"/>
    <line x1="1536" y1="0" x2="1536" y2="1024"/>
    <line x1="1792" y1="0" x2="1792" y2="1024"/>
  </g>
</svg>
